<svg width="120" height="27" viewBox="0 0 120 27" fill="none" xmlns="http://www.w3.org/2000/svg">
<g clip-path="url(#clip0)">
<path d="M22.1868 6.75871L22.1538 20.2413L18.4615 22.5058V19.4748L19.6483 18.7432V8.29161L11.0769 3.03097L2.50549 8.25677L2.53846 18.7432L11.1099 23.969L13.1209 22.7148L13.0879 15.8516L17.3736 13.2735L15.4615 16.4787L15.4945 21.2865V21.9484V24.3174L11.0769 27L0 20.2761V6.75871L11.1099 0L22.1868 6.75871Z" fill="#CE6FAC"/>
<path d="M33.5605 11.4271H33.1319C32.6703 11.4271 32.3077 11.6013 31.978 11.9148C31.6813 12.2284 31.5165 12.6464 31.5165 13.1342V18.778H28.9451V8.98838H31.5165V9.51096C32.044 8.98838 32.7363 8.74451 33.5605 8.74451V11.4271Z" fill="#656565"/>
<path d="M44.0442 13.9006C44.0442 14.3884 43.9782 14.8064 43.8793 15.2593H37.2529C37.7145 15.9909 38.3738 16.3393 39.198 16.3393C39.8573 16.3393 40.4178 16.0606 40.8793 15.538L42.6925 17.4542C41.7035 18.4993 40.5167 19.0219 39.198 19.0219C37.8463 19.0219 36.6925 18.5342 35.7364 17.5238C34.7804 16.5135 34.3188 15.2942 34.3188 13.8658C34.3188 12.4374 34.7804 11.218 35.7364 10.2077C36.6925 9.1974 37.8463 8.70966 39.198 8.70966C40.5496 8.70966 41.7035 9.1974 42.6595 10.2077C43.5497 11.2529 44.0442 12.4722 44.0442 13.9006ZM41.0771 12.5419C40.6156 11.8103 39.9892 11.4619 39.165 11.4619C38.3408 11.4619 37.6815 11.8103 37.22 12.5419H41.0771Z" fill="#656565"/>
<path d="M47.9342 18.778H45.3628V5.7832H47.9342V18.778Z" fill="#656565"/>
<path d="M54.1318 11.7058H52.9121V18.778H50.3406V11.7058H49.1208V8.98836H50.3406V5.7832H52.9121V8.98836H54.1318V11.7058Z" fill="#656565"/>
<path d="M64.5165 13.9006C64.5165 14.3884 64.4506 14.8064 64.3517 15.2593H57.6924C58.1539 15.9909 58.8132 16.3393 59.6374 16.3393C60.2967 16.3393 60.8572 16.0606 61.3187 15.538L63.1319 17.4542C62.1429 18.4993 60.9561 19.0219 59.6374 19.0219C58.2858 19.0219 57.1319 18.5342 56.1759 17.5238C55.2198 16.5135 54.7583 15.2942 54.7583 13.8658C54.7583 12.4374 55.2198 11.218 56.1759 10.2077C57.1319 9.1974 58.2858 8.70966 59.6374 8.70966C60.989 8.70966 62.1429 9.1974 63.0989 10.2077C64.022 11.2529 64.5165 12.4722 64.5165 13.9006ZM61.5495 12.5419C61.0879 11.8103 60.4616 11.4619 59.6374 11.4619C58.8132 11.4619 58.1539 11.8103 57.6924 12.5419H61.5495Z" fill="#656565"/>
<path d="M70.4506 11.4271H70.0221C69.5605 11.4271 69.1979 11.6013 68.8682 11.9148C68.5715 12.2284 68.4067 12.6464 68.4067 13.1342V18.778H65.8352V8.98838H68.4067V9.51096C68.9341 8.98838 69.6264 8.74451 70.4506 8.74451V11.4271Z" fill="#656565"/>
<path d="M81.1318 8.98828L76.0219 22.645H73.2527L74.8021 18.4644L71.2417 8.98828H74.0109L76.1868 14.7715L78.3626 8.98828H81.1318Z" fill="#656565"/>
<path d="M84.7582 18.7781H82.1868V16.0607H84.7582V18.7781Z" fill="#CE6FAC"/>
<path d="M94.4835 10.2774L92.6373 12.1935C92.1758 11.671 91.6154 11.4271 90.956 11.4271C90.3297 11.4271 89.7692 11.671 89.3077 12.1587C88.8461 12.6464 88.6154 13.2039 88.6154 13.9006C88.6154 14.5626 88.8461 15.1548 89.3077 15.6426C89.7692 16.1303 90.2967 16.3742 90.956 16.3742C91.6154 16.3742 92.1758 16.0955 92.6373 15.5729L94.4505 17.489C93.4615 18.5342 92.3077 19.0568 90.956 19.0568C89.6044 19.0568 88.4505 18.569 87.4945 17.5587C86.5384 16.5484 86.0769 15.329 86.0769 13.9006C86.0769 12.4722 86.5384 11.2529 87.4945 10.2426C88.4505 9.23225 89.6044 8.74451 90.956 8.74451C92.3077 8.74451 93.4615 9.26709 94.4835 10.2774Z" fill="#CE6FAC"/>
<path d="M104.539 13.9006C104.539 15.329 104.077 16.5484 103.121 17.5587C102.165 18.569 101.011 19.0568 99.6594 19.0568C98.3077 19.0568 97.1539 18.569 96.1979 17.5587C95.2418 16.5484 94.7803 15.329 94.7803 13.9006C94.7803 12.4722 95.2418 11.2529 96.1979 10.2426C97.1539 9.23225 98.3077 8.74451 99.6594 8.74451C101.011 8.74451 102.165 9.23225 103.121 10.2426C104.077 11.2529 104.539 12.4722 104.539 13.9006ZM101.967 13.9006C101.967 13.2387 101.736 12.6464 101.275 12.1587C100.813 11.671 100.286 11.4271 99.6264 11.4271C98.9671 11.4271 98.4396 11.671 97.9781 12.1587C97.5165 12.6464 97.2858 13.2039 97.2858 13.9006C97.2858 14.5626 97.5165 15.1548 97.9781 15.6426C98.4396 16.1303 98.9671 16.3742 99.6264 16.3742C100.286 16.3742 100.813 16.1303 101.275 15.6426C101.736 15.1548 101.967 14.5626 101.967 13.9006Z" fill="#CE6FAC"/>
<path d="M120 18.778H117.429V13.1342C117.429 12.6464 117.264 12.2632 116.967 11.9148C116.637 11.6013 116.275 11.4271 115.813 11.4271C115.385 11.4271 115.022 11.6361 114.692 12.0542C114.363 12.4374 114.231 12.7858 114.231 13.1342V18.778H111.659V13.1342C111.659 12.6464 111.495 12.2632 111.198 11.9148C110.868 11.6013 110.506 11.4271 110.044 11.4271C109.582 11.4271 109.22 11.6013 108.89 11.9148C108.593 12.2284 108.429 12.6464 108.429 13.1342V18.778H105.857V8.98838H108.429V9.51096C108.956 8.98838 109.615 8.74451 110.407 8.74451C111.429 8.74451 112.286 9.12773 113.011 9.89418C113.802 9.12773 114.758 8.74451 115.813 8.74451C116.967 8.74451 117.956 9.16257 118.78 10.0335C119.604 10.9045 120 11.9148 120 13.1342V18.778Z" fill="#CE6FAC"/>
</g>
<defs>
<clipPath id="clip0">
<rect width="120" height="27" fill="white"/>
</clipPath>
</defs>
</svg>
