<svg width="152" height="34" viewBox="0 0 152 34" fill="none" xmlns="http://www.w3.org/2000/svg">
<g clip-path="url(#clip0)">
<path d="M28.1033 8.51097L28.0615 25.489L23.3846 28.3406V24.5239L24.8879 23.6026V10.4413L14.0308 3.81677L3.17363 10.3974L3.21538 23.6026L14.0725 30.1832L16.6198 28.6039L16.578 19.9613L22.0066 16.7148L19.5846 20.751L19.6264 26.8052V27.6387V30.6219L14.0308 34L0 25.5329V8.51097L14.0725 0L28.1033 8.51097Z" fill="white"/>
<path d="M42.51 14.3897H41.9672C41.3825 14.3897 40.9232 14.609 40.5056 15.0039C40.1298 15.3987 39.921 15.9251 39.921 16.5393V23.6464H36.6638V11.3187H39.921V11.9768C40.5891 11.3187 41.4661 11.0116 42.51 11.0116V14.3897Z" fill="white"/>
<path d="M55.7893 17.5045C55.7893 18.1187 55.7057 18.6451 55.5805 19.2155H47.187C47.7716 20.1367 48.6068 20.5755 49.6508 20.5755C50.4859 20.5755 51.1958 20.2245 51.7804 19.5664L54.0772 21.9793C52.8244 23.2955 51.3211 23.9535 49.6508 23.9535C47.9387 23.9535 46.4771 23.3393 45.2661 22.0671C44.0551 20.7948 43.4705 19.2593 43.4705 17.4606C43.4705 15.6619 44.0551 14.1264 45.2661 12.8542C46.4771 11.5819 47.9387 10.9677 49.6508 10.9677C51.3629 10.9677 52.8244 11.5819 54.0354 12.8542C55.1629 14.1703 55.7893 15.7058 55.7893 17.5045ZM52.031 15.7935C51.4464 14.8722 50.653 14.4335 49.609 14.4335C48.565 14.4335 47.7299 14.8722 47.1453 15.7935H52.031Z" fill="white"/>
<path d="M60.7167 23.6465H57.4595V7.28259H60.7167V23.6465Z" fill="white"/>
<path d="M68.5671 14.7407H67.022V23.6465H63.7649V14.7407H62.2198V11.3187H63.7649V7.28259H67.022V11.3187H68.5671V14.7407Z" fill="white"/>
<path d="M81.7209 17.5045C81.7209 18.1187 81.6374 18.6451 81.5121 19.2155H73.077C73.6616 20.1367 74.4967 20.5755 75.5407 20.5755C76.3758 20.5755 77.0857 20.2245 77.6704 19.5664L79.967 21.9793C78.7143 23.2955 77.211 23.9535 75.5407 23.9535C73.8286 23.9535 72.3671 23.3393 71.1561 22.0671C69.9451 20.7948 69.3605 19.2593 69.3605 17.4606C69.3605 15.6619 69.9451 14.1264 71.1561 12.8542C72.3671 11.5819 73.8286 10.9677 75.5407 10.9677C77.2528 10.9677 78.7143 11.5819 79.9253 12.8542C81.0945 14.1703 81.7209 15.7058 81.7209 17.5045ZM77.9627 15.7935C77.378 14.8722 76.5846 14.4335 75.5407 14.4335C74.4967 14.4335 73.6616 14.8722 73.077 15.7935H77.9627Z" fill="white"/>
<path d="M89.2376 14.3897H88.6947C88.1101 14.3897 87.6507 14.609 87.2331 15.0039C86.8573 15.3987 86.6485 15.9251 86.6485 16.5393V23.6464H83.3914V11.3187H86.6485V11.9768C87.3167 11.3187 88.1936 11.0116 89.2376 11.0116V14.3897Z" fill="white"/>
<path d="M102.767 11.3186L96.2946 28.516H92.7869L94.7496 23.2515L90.2397 11.3186H93.7474L96.5034 18.6012L99.2595 11.3186H102.767Z" fill="white"/>
<path d="M107.36 23.6465H104.103V20.2245H107.36V23.6465Z" fill="white"/>
<path d="M119.679 12.9419L117.341 15.3548C116.756 14.6968 116.046 14.3897 115.211 14.3897C114.418 14.3897 113.708 14.6968 113.123 15.3109C112.539 15.9251 112.246 16.6271 112.246 17.5045C112.246 18.338 112.539 19.0838 113.123 19.698C113.708 20.3122 114.376 20.6193 115.211 20.6193C116.046 20.6193 116.756 20.2684 117.341 19.6103L119.637 22.0232C118.385 23.3393 116.923 23.9974 115.211 23.9974C113.499 23.9974 112.037 23.3832 110.826 22.1109C109.615 20.8387 109.031 19.3032 109.031 17.5045C109.031 15.7058 109.615 14.1703 110.826 12.898C112.037 11.6258 113.499 11.0116 115.211 11.0116C116.923 11.0116 118.385 11.6697 119.679 12.9419Z" fill="white"/>
<path d="M132.415 17.5045C132.415 19.3032 131.831 20.8387 130.62 22.1109C129.409 23.3832 127.947 23.9974 126.235 23.9974C124.523 23.9974 123.062 23.3832 121.851 22.1109C120.64 20.8387 120.055 19.3032 120.055 17.5045C120.055 15.7058 120.64 14.1703 121.851 12.898C123.062 11.6258 124.523 11.0116 126.235 11.0116C127.947 11.0116 129.409 11.6258 130.62 12.898C131.831 14.1703 132.415 15.7058 132.415 17.5045ZM129.158 17.5045C129.158 16.6709 128.866 15.9251 128.281 15.3109C127.697 14.6968 127.029 14.3897 126.193 14.3897C125.358 14.3897 124.69 14.6968 124.106 15.3109C123.521 15.9251 123.229 16.6271 123.229 17.5045C123.229 18.338 123.521 19.0838 124.106 19.698C124.69 20.3122 125.358 20.6193 126.193 20.6193C127.029 20.6193 127.697 20.3122 128.281 19.698C128.866 19.0838 129.158 18.338 129.158 17.5045Z" fill="white"/>
<path d="M152 23.6464H148.743V16.5393C148.743 15.9251 148.534 15.4426 148.158 15.0039C147.741 14.609 147.281 14.3897 146.697 14.3897C146.154 14.3897 145.695 14.6529 145.277 15.1793C144.859 15.6619 144.692 16.1006 144.692 16.5393V23.6464H141.435V16.5393C141.435 15.9251 141.227 15.4426 140.851 15.0039C140.433 14.609 139.974 14.3897 139.389 14.3897C138.805 14.3897 138.345 14.609 137.928 15.0039C137.552 15.3987 137.343 15.9251 137.343 16.5393V23.6464H134.086V11.3187H137.343V11.9768C138.011 11.3187 138.846 11.0116 139.849 11.0116C141.143 11.0116 142.229 11.4942 143.147 12.4593C144.15 11.4942 145.361 11.0116 146.697 11.0116C148.158 11.0116 149.411 11.538 150.455 12.6348C151.499 13.7316 152 15.0039 152 16.5393V23.6464Z" fill="white"/>
</g>
<defs>
<clipPath id="clip0">
<rect width="152" height="34" fill="white"/>
</clipPath>
</defs>
</svg>
